<svg id="playground-logo" xmlns="http://www.w3.org/2000/svg" viewBox="0 0 512 512">
  <!-- Designed by Adam on 2024-08-08 -->
  <path d="m256,118.49c9.8,0,19.46.24,28.97.71-9.59-12.39-19.3-23.79-28.97-34.08-9.67,10.29-19.38,21.7-28.97,34.08,9.51-.46,19.18-.71,28.97-.71Z" style="fill:none; stroke-width:0px;" />
  <path d="m356.96,432.94c5.3-.42,10.18-1.85,14.54-4.37,22.83-13.18,26.93-53.23,14.82-105.37-20.08,5.11-41.93,9.08-65.05,11.7l35.69,98.04Z" style="fill:none; stroke-width:0px;" />
  <path d="m25,228.5c0-26.37,32.63-49.93,83.83-65.53-2.17-7.73-4.08-15.32-5.68-22.73C40.55,160.3,0,192.36,0,228.5s40.55,68.2,103.15,88.26c1.61-7.41,3.51-15,5.68-22.73-51.21-15.59-83.83-39.16-83.83-65.53Z" style="stroke-width:0px;" />
  <path d="m320.16,331.83l1.12,3.06c23.13-2.61,44.97-6.58,65.05-11.7-1.73-7.44-3.78-15.12-6.16-23.01-13.74,3.23-28.48,5.94-44,8.05-5.23,8.12-10.57,16-16.01,23.59Z" style="stroke-width:0px;" />
  <path d="m256,143.49c16.46,0,32.52.64,48.01,1.84-6.26-9.12-12.62-17.85-19.04-26.14-9.51-.46-19.18-.71-28.97-.71s-19.46.24-28.97.71c-6.42,8.29-12.78,17.02-19.04,26.14,15.49-1.21,31.55-1.84,48.01-1.84Z" style="stroke-width:0px;" />
  <path d="m194.35,121.71c-24.47,2.6-47.55,6.71-68.67,12.09,1.73,7.44,3.78,15.12,6.16,23.01,13.74-3.23,28.48-5.94,44-8.05,6.03-9.37,12.21-18.39,18.52-27.05Z" style="stroke-width:0px;" />
  <path d="m512,228.5c0-36.14-40.55-68.2-103.15-88.26-1.61,7.41-3.51,15-5.68,22.73,51.21,15.59,83.83,39.16,83.83,65.53s-32.63,49.93-83.83,65.53c2.17,7.73,4.08,15.32,5.68,22.73,62.61-20.06,103.15-52.12,103.15-88.26Z" style="stroke-width:0px;" />
  <path d="m371.5,428.57c-4.37,2.52-9.24,3.95-14.54,4.37l8.55,23.5c6.64-.91,12.84-2.95,18.49-6.22,31.29-18.07,38.78-69.22,24.85-133.47-7.22,2.31-14.74,4.46-22.52,6.44,12.1,52.15,8.01,92.19-14.82,105.37Z" style="stroke-width:0px;" />
  <path d="m202.29,303.19c-6.8-10.29-13.46-21.03-19.9-32.19-8.23-14.26-15.71-28.49-22.41-42.5-4.77,9.98-9.15,19.86-13.12,29.56,4.36,8.47,8.98,16.96,13.88,25.45s9.94,16.73,15.1,24.74c7.69,1.05,15.58,1.95,23.63,2.69l2.82-7.75Z" style="stroke-width:0px;" />
  <path d="m336.17,148.75c-10.39-1.41-21.13-2.56-32.15-3.42,8.79,12.81,17.37,26.4,25.6,40.66,8.23,14.26,15.71,28.49,22.41,42.5,4.77-9.98,9.15-19.86,13.12-29.56-4.36-8.47-8.98-16.96-13.88-25.45s-9.94-16.73-15.1-24.74Z" style="stroke-width:0px;" />
  <path d="m317.65,121.71c-14.49-19.89-29.59-37.83-44.81-53.43-5.58,5.21-11.2,10.83-16.84,16.84,9.67,10.29,19.38,21.7,28.97,34.08,11.12.54,22.03,1.38,32.68,2.51Z" style="stroke-width:0px;" />
  <path d="m140.5,28.43c22.83-13.18,59.55,3.29,98.66,39.85,5.61-5.75,11.23-11.19,16.84-16.29C207.33,7.79,159.29-11.29,128,6.77s-38.78,69.22-24.85,133.47c7.22-2.31,14.74-4.46,22.52-6.44-12.1-52.15-8.01-92.19,14.82-105.37Z" style="stroke-width:0px;" />
  <path d="m336.17,148.75c-6.03-9.37-12.21-18.39-18.52-27.05-10.65-1.13-21.55-1.98-32.68-2.51,6.42,8.29,12.78,17.02,19.04,26.14,11.03.86,21.77,2,32.15,3.42Z" style="stroke-width:0px;" />
  <path d="m175.83,308.25c5.23,8.13,10.58,16.01,16.02,23.6l7.61-20.91c-8.05-.75-15.94-1.65-23.63-2.69Z" style="stroke-width:0px;" />
  <path d="m131.83,156.81c-2.38-7.89-4.43-15.57-6.16-23.01-7.78,1.98-15.3,4.13-22.52,6.44,1.61,7.41,3.51,15,5.68,22.73,7.3-2.22,14.98-4.28,23-6.17Z" style="stroke-width:0px;" />
  <path d="m380.17,300.19c2.38,7.89,4.43,15.57,6.16,23.01,7.78-1.98,15.3-4.13,22.52-6.44-1.61-7.41-3.51-15-5.68-22.73-7.3,2.22-14.98,4.28-23,6.17Z" style="stroke-width:0px;" />
  <path d="m329.61,271c-6.44,11.15-13.09,21.89-19.89,32.17l2.83,7.76c8.05-.75,15.93-1.64,23.61-2.69,5.15-8.01,10.2-16.26,15.1-24.74s9.52-16.98,13.88-25.45c-3.97-9.7-8.35-19.58-13.12-29.56-6.7,14.02-14.18,28.24-22.41,42.5Z" style="stroke-width:0px;" />
  <path d="m132.7,228.5c-9.98,22.49-17.96,44.54-23.87,65.53,7.3,2.22,14.98,4.28,23,6.17,4.07-13.52,9.1-27.64,15.03-42.14-5.1-9.9-9.82-19.77-14.16-29.56Z" style="stroke-width:0px;" />
  <path d="m272.84,68.27c39.11-36.55,75.82-53.03,98.66-39.85,22.83,13.18,26.93,53.23,14.82,105.37,7.78,1.98,15.3,4.13,22.52,6.44,13.94-64.25,6.44-115.4-24.85-133.47s-79.33,1.02-128,45.21c5.61,5.1,11.24,10.54,16.84,16.29Z" style="stroke-width:0px;" />
  <path d="m182.39,186c8.23-14.26,16.81-27.85,25.6-40.66-11.03.86-21.77,2-32.15,3.42-5.15,8.01-10.2,16.26-15.1,24.74-4.9,8.49-9.52,16.98-13.88,25.45,3.97,9.7,8.35,19.58,13.12,29.56,6.7-14.02,14.18-28.24,22.41-42.5Z" style="stroke-width:0px;" />
  <path d="m140.5,428.57c-22.83-13.18-26.93-53.23-14.82-105.37-7.78-1.98-15.3-4.13-22.52-6.44-13.94,64.25-6.44,115.4,24.85,133.47,5.65,3.26,11.86,5.31,18.51,6.22l8.55-23.5c-5.31-.42-10.19-1.85-14.56-4.37Z" style="stroke-width:0px;" />
  <path d="m365.14,198.94c5.1,9.9,9.82,19.77,14.16,29.56,9.98-22.49,17.96-44.54,23.87-65.53-7.3-2.22-14.98-4.28-23-6.17-4.07,13.52-9.1,27.64-15.03,42.14Z" style="stroke-width:0px;" />
  <path d="m227.03,119.19c-11.12.54-22.03,1.38-32.68,2.51-6.3,8.65-12.49,17.68-18.52,27.05,10.39-1.41,21.13-2.56,32.15-3.42,6.26-9.12,12.62-17.85,19.04-26.14Z" style="stroke-width:0px;" />
  <path d="m131.83,300.19c-8.02-1.88-15.7-3.95-23-6.17-2.17,7.73-4.08,15.32-5.68,22.73,7.22,2.31,14.74,4.46,22.52,6.44,1.73-7.44,3.78-15.12,6.16-23.01Z" style="stroke-width:0px;" />
  <path d="m320.16,331.83c5.44-7.59,10.78-15.46,16.01-23.59-7.69,1.05-15.57,1.95-23.61,2.69l7.6,20.89Z" style="stroke-width:0px;" />
  <path d="m380.17,156.81c8.02,1.88,15.7,3.95,23,6.17,2.17-7.73,4.08-15.32,5.68-22.73-7.22-2.31-14.74-4.46-22.52-6.44-1.73,7.44-3.78,15.12-6.16,23.01Z" style="stroke-width:0px;" />
  <path d="m365.14,258.06c5.1-9.9,9.82-19.77,14.16-29.56-4.34-9.79-9.07-19.65-14.16-29.56-3.97,9.7-8.35,19.58-13.12,29.56,4.77,9.98,9.15,19.86,13.12,29.56Z" style="stroke-width:0px;" />
  <path d="m239.16,68.27c5.58,5.21,11.2,10.83,16.84,16.84,5.64-6,11.27-11.62,16.84-16.84-5.61-5.75-11.23-11.19-16.84-16.29-5.61,5.1-11.24,10.54-16.84,16.29Z" style="stroke-width:0px;" />
  <path d="m146.86,198.94c-5.1,9.9-9.82,19.77-14.16,29.56,4.34,9.79,9.07,19.65,14.16,29.56,3.97-9.7,8.35-19.58,13.12-29.56-4.77-9.98-9.15-19.86-13.12-29.56Z" style="stroke-width:0px;" />
  <path d="m338.21,454.54l19.48,53.51c.86,2.37,3.12,3.95,5.64,3.95h13.83c4.16,0,7.06-4.14,5.64-8.05l-17.29-47.51c-8.44,1.16-17.6.47-27.3-1.9Z" style="stroke-width:0px;" />
  <path d="m280.07,221.76c-2.94-10.53-12.6-18.26-24.07-18.26s-21.04,7.66-24.03,18.11c-.03.1-.06.19-.09.29l-29.59,81.29c1.89,2.86,3.79,5.68,5.7,8.47,5.73.45,11.54.81,17.42,1.1l20.35-55.9c.95-2.6,3.62-4.1,6.36-3.67,1.27.2,2.57.3,3.89.3s2.63-.1,3.91-.3c2.74-.43,5.41,1.06,6.36,3.67l20.35,55.9c5.87-.29,11.67-.65,17.4-1.1,1.92-2.79,3.82-5.62,5.72-8.49l-29.64-81.42h-.02Z" style="stroke-width:0px;" />
  <path d="m194.35,335.29c-1.2-.13-2.41-.26-3.6-.39l-35.69,98.04c8.55.67,18.22-1.3,28.66-5.64l26.12-71.76c-5.23-6.5-10.39-13.25-15.49-20.25Z" style="stroke-width:0px;" />
  <path d="m146.51,456.44l-17.29,47.5c-1.42,3.91,1.47,8.05,5.64,8.05h13.83c2.52,0,4.78-1.58,5.64-3.95l19.48-53.52c-9.7,2.37-18.86,3.07-27.3,1.91Z" style="stroke-width:0px;" />
  <path d="m317.65,335.29c-5.09,6.99-10.25,13.74-15.48,20.23l26.13,71.79c10.44,4.34,20.1,6.31,28.65,5.63l-35.69-98.04c-1.2.14-2.41.27-3.62.39Z" style="stroke-width:0px;" />
  <path d="m321.27,334.9l-1.12-3.06c-.83,1.16-1.67,2.31-2.51,3.46,1.21-.13,2.42-.26,3.62-.39Z" style="stroke-width:0px;" />
  <path d="m219.78,328.23l5.63-15.46c-5.88-.29-11.69-.65-17.42-1.1,3.89,5.68,7.83,11.2,11.79,16.56Z" style="stroke-width:0px;" />
  <path d="m292.23,328.21c3.96-5.35,7.89-10.88,11.78-16.55-5.72.45-11.53.81-17.4,1.1l5.62,15.45Z" style="stroke-width:0px;" />
  <path d="m190.75,334.9c1.2.14,2.4.26,3.6.39-.83-1.14-1.66-2.28-2.49-3.44l-1.11,3.05Z" style="stroke-width:0px;" />
  <path d="m209.84,355.54l6.67-18.33c-7.5-.5-14.89-1.14-22.16-1.92,5.09,7,10.26,13.75,15.49,20.25Z" style="stroke-width:0px;" />
  <path d="m199.47,310.94c2.82.26,5.66.5,8.52.72-1.91-2.79-3.81-5.61-5.7-8.47l-2.82,7.75Z" style="stroke-width:0px;" />
  <path d="m328.3,427.31l9.91,27.22c9.7,2.37,18.86,3.06,27.3,1.9l-8.55-23.5c-8.55.68-18.21-1.29-28.65-5.63Z" style="stroke-width:0px;" />
  <path d="m207.99,311.66c-2.86-.22-5.7-.46-8.52-.72l-7.61,20.91c.83,1.16,1.66,2.3,2.49,3.44,7.27.77,14.66,1.42,22.16,1.92l3.27-8.98c-3.96-5.36-7.9-10.89-11.79-16.56Z" style="stroke-width:0px;" />
  <path d="m302.17,355.52c5.22-6.49,10.39-13.24,15.48-20.23-7.27.77-14.65,1.42-22.14,1.91l6.67,18.32Z" style="stroke-width:0px;" />
  <path d="m155.06,432.94l-8.55,23.5c8.44,1.15,17.6.46,27.3-1.91l9.91-27.23c-10.44,4.34-20.1,6.31-28.66,5.64Z" style="stroke-width:0px;" />
  <path d="m312.55,310.94l-2.83-7.76c-1.89,2.87-3.8,5.7-5.72,8.49,2.87-.22,5.71-.46,8.54-.73Z" style="stroke-width:0px;" />
  <path d="m304.01,311.66c-3.89,5.67-7.82,11.19-11.78,16.55l3.27,9c7.49-.5,14.88-1.14,22.14-1.91.84-1.15,1.67-2.3,2.51-3.46l-7.6-20.89c-2.83.26-5.67.5-8.54.73Z" style="stroke-width:0px;" />
  <circle cx="108" cy="387" r="25" style="fill:red; stroke-width:0px;" />
  <circle cx="404" cy="70" r="25" style="fill:aqua; stroke-width:0px;" />
  <circle cx="402" cy="351" r="25" style="fill:#f0f; stroke-width:0px;" />
  <circle cx="110" cy="106" r="25" style="fill:lime; stroke-width:0px;" />
  <circle cx="31" cy="262" r="25" style="fill:#ff0; stroke-width:0px;" />
  <circle cx="481" cy="195" r="25" style="fill:blue; stroke-width:0px;" />
</svg>